<svg width="200" height="84" viewBox="0 0 200 84" fill="none" xmlns="http://www.w3.org/2000/svg">
<path d="M0 47.1904V13.7253H11.9743C14.5879 13.7253 16.7531 14.1992 18.47 15.1469C20.1869 16.0947 21.4718 17.391 22.3247 19.036C23.1777 20.67 23.6042 22.511 23.6042 24.559C23.6042 26.6179 23.1722 28.4698 22.3083 30.1147C21.4554 31.7488 20.165 33.0451 18.4372 34.0037C16.7203 34.9515 14.5606 35.4254 11.9579 35.4254H3.72352V31.1442H11.4986C13.1499 31.1442 14.4895 30.8609 15.5174 30.2945C16.5454 29.7171 17.2999 28.9328 17.7811 27.9415C18.2622 26.9501 18.5028 25.8227 18.5028 24.559C18.5028 23.2954 18.2622 22.1733 17.7811 21.1929C17.2999 20.2125 16.5399 19.4445 15.501 18.8889C14.4731 18.3333 13.1171 18.0555 11.433 18.0555H5.06859V47.1904H0Z" fill="#26304F"/>
<path d="M29.5462 47.1904V13.7253H50.6079V18.0719H34.6148V28.2683H49.5089V32.5985H34.6148V42.8439H50.8048V47.1904H29.5462Z" fill="#26304F"/>
<path d="M86.5596 30.4579C86.5596 34.031 85.9035 37.103 84.5913 39.6739C83.279 42.2339 81.4801 44.2056 79.1946 45.5891C76.92 46.9617 74.3338 47.648 71.4359 47.648C68.5271 47.648 65.9299 46.9617 63.6444 45.5891C61.3698 44.2056 59.5764 42.2284 58.2641 39.6575C56.9519 37.0866 56.2957 34.0201 56.2957 30.4579C56.2957 26.8848 56.9519 23.8182 58.2641 21.2583C59.5764 18.6874 61.3698 16.7156 63.6444 15.343C65.9299 13.9595 68.5271 13.2678 71.4359 13.2678C74.3338 13.2678 76.92 13.9595 79.1946 15.343C81.4801 16.7156 83.279 18.6874 84.5913 21.2583C85.9035 23.8182 86.5596 26.8848 86.5596 30.4579ZM81.5403 30.4579C81.5403 27.7345 81.0974 25.4414 80.2116 23.5786C79.3368 21.7049 78.1339 20.2887 76.6029 19.3301C75.0829 18.3606 73.3605 17.8758 71.4359 17.8758C69.5003 17.8758 67.7725 18.3606 66.2525 19.3301C64.7325 20.2887 63.5296 21.7049 62.6438 23.5786C61.7689 25.4414 61.3315 27.7345 61.3315 30.4579C61.3315 33.1813 61.7689 35.4798 62.6438 37.3535C63.5296 39.2163 64.7325 40.6325 66.2525 41.602C67.7725 42.5607 69.5003 43.04 71.4359 43.04C73.3605 43.04 75.0829 42.5607 76.6029 41.602C78.1339 40.6325 79.3368 39.2163 80.2116 37.3535C81.0974 35.4798 81.5403 33.1813 81.5403 30.4579Z" fill="#26304F"/>
<path d="M92.879 47.1904V13.7253H104.853C107.467 13.7253 109.632 14.1992 111.349 15.1469C113.066 16.0947 114.351 17.391 115.204 19.036C116.057 20.67 116.483 22.511 116.483 24.559C116.483 26.6179 116.051 28.4698 115.187 30.1147C114.334 31.7488 113.044 33.0451 111.316 34.0037C109.599 34.9515 107.44 35.4254 104.837 35.4254H96.6025V31.1442H104.378C106.029 31.1442 107.368 30.8609 108.396 30.2945C109.424 29.7171 110.179 28.9328 110.66 27.9415C111.141 26.9501 111.382 25.8227 111.382 24.559C111.382 23.2954 111.141 22.1733 110.66 21.1929C110.179 20.2125 109.419 19.4445 108.38 18.8889C107.352 18.3333 105.996 18.0555 104.312 18.0555H97.9475V47.1904H92.879Z" fill="#26304F"/>
<path d="M122.425 47.1904V13.7253H127.494V42.8439H142.716V47.1904H122.425Z" fill="#26304F"/>
<path d="M148.498 47.1904V13.7253H169.56V18.0719H153.567V28.2683H168.461V32.5985H153.567V42.8439H169.757V47.1904H148.498Z" fill="#26304F"/>
<path d="M194.653 22.5165C194.478 20.9696 193.756 19.7713 192.487 18.9216C191.219 18.061 189.622 17.6307 187.698 17.6307C186.32 17.6307 185.128 17.8486 184.122 18.2843C183.116 18.7092 182.334 19.2974 181.776 20.0491C181.229 20.7898 180.956 21.6341 180.956 22.5818C180.956 23.3771 181.142 24.0633 181.514 24.6407C181.896 25.2181 182.394 25.7028 183.006 26.095C183.63 26.4763 184.297 26.7976 185.007 27.0591C185.718 27.3096 186.402 27.5166 187.058 27.68L190.339 28.5297C191.41 28.7912 192.509 29.1452 193.636 29.5918C194.762 30.0385 195.806 30.6267 196.769 31.3566C197.731 32.0865 198.507 32.9906 199.098 34.0691C199.699 35.1476 200 36.4385 200 37.9418C200 39.8373 199.508 41.5203 198.524 42.991C197.55 44.4616 196.134 45.6218 194.275 46.4715C192.427 47.3212 190.191 47.746 187.566 47.746C185.051 47.746 182.875 47.3484 181.038 46.5532C179.201 45.7579 177.763 44.6304 176.724 43.1707C175.685 41.7001 175.111 39.9571 175.002 37.9418H180.087C180.185 39.151 180.579 40.1586 181.268 40.9647C181.967 41.76 182.859 42.3537 183.941 42.7458C185.035 43.1271 186.232 43.3178 187.534 43.3178C188.966 43.3178 190.24 43.0944 191.356 42.6478C192.482 42.1903 193.368 41.5584 194.013 40.7523C194.658 39.9353 194.981 38.9821 194.981 37.8928C194.981 36.9014 194.696 36.0899 194.128 35.458C193.57 34.8262 192.81 34.3033 191.848 33.8894C190.896 33.4754 189.819 33.1105 188.616 32.7946L184.647 31.7161C181.956 30.9862 179.824 29.9132 178.249 28.497C176.686 27.0809 175.904 25.2072 175.904 22.8759C175.904 20.9478 176.429 19.2647 177.478 17.8268C178.528 16.3888 179.95 15.2722 181.743 14.477C183.537 13.6709 185.56 13.2678 187.812 13.2678C190.087 13.2678 192.094 13.6654 193.832 14.4607C195.582 15.2559 196.96 16.3507 197.966 17.7451C198.972 19.1286 199.497 20.719 199.541 22.5165H194.653Z" fill="#26304F"/>
<path d="M105.953 66.7282H100.365C100.263 66.008 100.055 65.3683 99.7401 64.8091C99.4254 64.2415 99.0214 63.7585 98.5281 63.3603C98.0348 62.9621 97.465 62.657 96.8186 62.4452C96.1807 62.2334 95.4875 62.1275 94.739 62.1275C93.3866 62.1275 92.2087 62.4622 91.205 63.1315C90.2014 63.7924 89.4231 64.7583 88.8703 66.0292C88.3175 67.2917 88.041 68.8252 88.041 70.6299C88.041 72.4855 88.3175 74.0445 88.8703 75.3069C89.4317 76.5694 90.2141 77.5226 91.2178 78.1665C92.2214 78.8104 93.3824 79.1324 94.7007 79.1324C95.4407 79.1324 96.1254 79.035 96.7548 78.8401C97.3927 78.6452 97.9583 78.3614 98.4516 77.9886C98.9449 77.6073 99.3532 77.1455 99.6764 76.6033C100.008 76.061 100.238 75.4425 100.365 74.7477L105.953 74.7731C105.809 75.9678 105.447 77.1201 104.869 78.23C104.299 79.3315 103.529 80.3186 102.56 81.1913C101.599 82.0555 100.45 82.7418 99.115 83.2502C97.7882 83.7501 96.287 84 94.6114 84C92.2809 84 90.1971 83.4747 88.36 82.4241C86.5313 81.3734 85.0854 79.8526 84.0222 77.8615C82.9676 75.8704 82.4402 73.4599 82.4402 70.6299C82.4402 67.7916 82.9761 65.3768 84.0478 63.3857C85.1194 61.3946 86.5739 59.878 88.411 58.8358C90.2482 57.7852 92.315 57.2599 94.6114 57.2599C96.1254 57.2599 97.5288 57.4717 98.8216 57.8953C100.123 58.319 101.275 58.9375 102.279 59.7509C103.283 60.5558 104.099 61.5429 104.729 62.7121C105.366 63.8814 105.775 65.2201 105.953 66.7282Z" fill="#A3B0D9"/>
<path d="M109.915 83.6441V57.6157H115.439V79.107H126.64V83.6441H109.915Z" fill="#A3B0D9"/>
<path d="M135.823 57.6157V83.6441H130.299V57.6157H135.823Z" fill="#A3B0D9"/>
<path d="M162.223 57.6157V83.6441H157.451L146.084 67.262H145.892V83.6441H140.368V57.6157H145.216L156.494 73.9852H156.724V57.6157H162.223Z" fill="#A3B0D9"/>
<path d="M172.311 57.6157V83.6441H166.787V57.6157H172.311Z" fill="#A3B0D9"/>
<path d="M199.91 66.7282H194.322C194.22 66.008 194.011 65.3683 193.697 64.8091C193.382 64.2415 192.978 63.7585 192.485 63.3603C191.991 62.9621 191.422 62.657 190.775 62.4452C190.137 62.2334 189.444 62.1275 188.696 62.1275C187.343 62.1275 186.165 62.4622 185.162 63.1315C184.158 63.7924 183.38 64.7583 182.827 66.0292C182.274 67.2917 181.998 68.8252 181.998 70.6299C181.998 72.4855 182.274 74.0445 182.827 75.3069C183.388 76.5694 184.171 77.5226 185.174 78.1665C186.178 78.8104 187.339 79.1324 188.657 79.1324C189.397 79.1324 190.082 79.035 190.711 78.8401C191.349 78.6452 191.915 78.3614 192.408 77.9886C192.901 77.6073 193.31 77.1455 193.633 76.6033C193.965 76.061 194.194 75.4425 194.322 74.7477L199.91 74.7731C199.765 75.9678 199.404 77.1201 198.825 78.23C198.256 79.3315 197.486 80.3186 196.516 81.1913C195.555 82.0555 194.407 82.7418 193.072 83.2502C191.745 83.7501 190.244 84 188.568 84C186.238 84 184.154 83.4747 182.317 82.4241C180.488 81.3734 179.042 79.8526 177.979 77.8615C176.924 75.8704 176.397 73.4599 176.397 70.6299C176.397 67.7916 176.933 65.3768 178.004 63.3857C179.076 61.3946 180.53 59.878 182.368 58.8358C184.205 57.7852 186.272 57.2599 188.568 57.2599C190.082 57.2599 191.485 57.4717 192.778 57.8953C194.079 58.319 195.232 58.9375 196.236 59.7509C197.239 60.5558 198.056 61.5429 198.685 62.7121C199.323 63.8814 199.731 65.2201 199.91 66.7282Z" fill="#A3B0D9"/>
<path d="M173.393 0.214734C173.393 0.0961397 173.489 0 173.608 0H176.626C176.745 0 176.842 0.0961399 176.842 0.214734V12.6693C176.842 12.7879 176.745 12.8841 176.626 12.8841H173.608C173.489 12.8841 173.393 12.7879 173.393 12.6693V0.214734Z" fill="#A3B0D9"/>
<path d="M168.866 8.15991C168.747 8.15991 168.65 8.06377 168.65 7.94517V4.93889C168.65 4.8203 168.747 4.72416 168.866 4.72416H181.368C181.488 4.72416 181.584 4.8203 181.584 4.93889V7.94517C181.584 8.06377 181.488 8.15991 181.368 8.15991H168.866Z" fill="#A3B0D9"/>
</svg>
