<svg width="4015" height="1001" viewBox="0 0 4015 1001" fill="none" xmlns="http://www.w3.org/2000/svg">
<path d="M71.9886 923V268.455H305.298C356.222 268.455 398.409 277.723 431.861 296.26C465.313 314.797 490.348 340.152 506.967 372.325C523.587 404.286 531.896 440.294 531.896 480.351C531.896 520.621 523.48 556.842 506.648 589.016C490.028 620.976 464.886 646.331 431.222 665.081C397.77 683.618 355.689 692.886 304.979 692.886H144.538V609.151H296.03C328.203 609.151 354.304 603.611 374.332 592.531C394.361 581.239 409.062 565.898 418.438 546.509C427.812 527.119 432.5 505.067 432.5 480.351C432.5 455.635 427.812 433.689 418.438 414.513C409.062 395.337 394.254 380.315 374.013 369.449C353.984 358.582 327.564 353.149 294.751 353.149H170.746V923H71.9886ZM647.672 923V268.455H1058.04V353.469H746.429V552.901H1036.63V637.595H746.429V837.986H1061.88V923H647.672ZM1758.53 595.727C1758.53 665.614 1745.75 725.699 1720.18 775.983C1694.61 826.054 1659.56 864.619 1615.03 891.679C1570.71 918.526 1520.32 931.949 1463.86 931.949C1407.18 931.949 1356.58 918.526 1312.05 891.679C1267.73 864.619 1232.78 825.947 1207.22 775.663C1181.65 725.379 1168.86 665.401 1168.86 595.727C1168.86 525.841 1181.65 465.862 1207.22 415.791C1232.78 365.507 1267.73 326.942 1312.05 300.095C1356.58 273.035 1407.18 259.506 1463.86 259.506C1520.32 259.506 1570.71 273.035 1615.03 300.095C1659.56 326.942 1694.61 365.507 1720.18 415.791C1745.75 465.862 1758.53 525.841 1758.53 595.727ZM1660.73 595.727C1660.73 542.46 1652.1 497.609 1634.84 461.175C1617.8 424.527 1594.36 396.828 1564.53 378.078C1534.91 359.115 1501.36 349.634 1463.86 349.634C1426.14 349.634 1392.48 359.115 1362.86 378.078C1333.25 396.828 1309.81 424.527 1292.55 461.175C1275.5 497.609 1266.98 542.46 1266.98 595.727C1266.98 648.994 1275.5 693.952 1292.55 730.599C1309.81 767.034 1333.25 794.733 1362.86 813.696C1392.48 832.446 1426.14 841.821 1463.86 841.821C1501.36 841.821 1534.91 832.446 1564.53 813.696C1594.36 794.733 1617.8 767.034 1634.84 730.599C1652.1 693.952 1660.73 648.994 1660.73 595.727ZM1881.66 923V268.455H2114.97C2165.89 268.455 2208.08 277.723 2241.53 296.26C2274.98 314.797 2300.02 340.152 2316.64 372.325C2333.25 404.286 2341.56 440.294 2341.56 480.351C2341.56 520.621 2333.15 556.842 2316.32 589.016C2299.7 620.976 2274.55 646.331 2240.89 665.081C2207.44 683.618 2165.36 692.886 2114.65 692.886H1954.21V609.151H2105.7C2137.87 609.151 2163.97 603.611 2184 592.531C2204.03 581.239 2218.73 565.898 2228.11 546.509C2237.48 527.119 2242.17 505.067 2242.17 480.351C2242.17 455.635 2237.48 433.689 2228.11 414.513C2218.73 395.337 2203.92 380.315 2183.68 369.449C2163.65 358.582 2137.23 353.149 2104.42 353.149H1980.41V923H1881.66ZM2457.34 923V268.455H2556.1V837.986H2852.69V923H2457.34ZM2965.35 923V268.455H3375.72V353.469H3064.11V552.901H3354.3V637.595H3064.11V837.986H3379.55V923H2965.35ZM3864.63 440.401C3861.22 410.145 3847.16 386.707 3822.44 370.088C3797.73 353.256 3766.62 344.839 3729.12 344.839C3702.27 344.839 3679.05 349.101 3659.44 357.624C3639.84 365.933 3624.61 377.439 3613.74 392.141C3603.09 406.629 3597.76 423.142 3597.76 441.679C3597.76 457.233 3601.38 470.656 3608.63 481.949C3616.08 493.241 3625.78 502.723 3637.71 510.393C3649.86 517.851 3662.85 524.136 3676.7 529.25C3690.55 534.151 3703.87 538.199 3716.65 541.395L3780.57 558.014C3801.45 563.128 3822.87 570.053 3844.81 578.788C3866.76 587.524 3887.11 599.03 3905.86 613.305C3924.61 627.581 3939.74 645.266 3951.24 666.359C3962.96 687.453 3968.82 712.702 3968.82 742.105C3968.82 779.179 3959.23 812.098 3940.06 840.862C3921.09 869.626 3893.5 892.318 3857.28 908.938C3821.27 925.557 3777.7 933.866 3726.56 933.866C3677.56 933.866 3635.15 926.089 3599.36 910.536C3563.56 894.982 3535.55 872.929 3515.3 844.378C3495.06 815.614 3483.88 781.523 3481.75 742.105H3580.82C3582.74 765.756 3590.41 785.464 3603.83 801.232C3617.47 816.786 3634.83 828.398 3655.93 836.068C3677.24 843.526 3700.57 847.254 3725.92 847.254C3753.83 847.254 3778.66 842.886 3800.39 834.151C3822.33 825.202 3839.59 812.844 3852.16 797.077C3864.74 781.097 3871.02 762.453 3871.02 741.146C3871.02 721.757 3865.48 705.884 3854.4 693.526C3843.54 681.168 3828.73 670.94 3809.98 662.844C3791.44 654.747 3770.45 647.609 3747.02 641.43L3669.67 620.337C3617.26 606.061 3575.71 585.074 3545.03 557.375C3514.56 529.676 3499.32 493.028 3499.32 447.432C3499.32 409.719 3509.55 376.8 3530.01 348.675C3550.46 320.55 3578.16 298.71 3613.1 283.156C3648.05 267.389 3687.46 259.506 3731.35 259.506C3775.67 259.506 3814.77 267.283 3848.65 282.837C3882.74 298.391 3909.59 319.804 3929.19 347.077C3948.79 374.136 3959.02 405.244 3959.87 440.401H3864.63Z" fill="#26304F"/>
<path d="M3450.4 4.2C3450.4 1.8804 3452.28 0 3454.6 0H3513.4C3515.72 0 3517.6 1.8804 3517.6 4.2V247.8C3517.6 250.12 3515.72 252 3513.4 252H3454.6C3452.28 252 3450.4 250.12 3450.4 247.8V4.2Z" fill="#A3B0D9"/>
<path d="M3362.2 159.6C3359.88 159.6 3358 157.72 3358 155.4L3358 96.6C3358 94.2804 3359.88 92.4 3362.2 92.4H3605.8C3608.12 92.4 3610 94.2804 3610 96.6V155.4C3610 157.72 3608.12 159.6 3605.8 159.6H3362.2Z" fill="#A3B0D9"/>
</svg>
