<svg width="3915" height="1643" viewBox="0 0 3915 1643" fill="none" xmlns="http://www.w3.org/2000/svg">
<path d="M0 923V268.455H233.31C284.233 268.455 326.42 277.723 359.872 296.26C393.324 314.797 418.359 340.152 434.979 372.325C451.598 404.285 459.908 440.294 459.908 480.351C459.908 520.621 451.491 556.842 434.659 589.016C418.04 620.976 392.898 646.331 359.233 665.081C325.781 683.618 283.7 692.886 232.99 692.886H72.5497V609.151H224.041C256.215 609.151 282.315 603.611 302.344 592.531C322.372 581.239 337.074 565.898 346.449 546.508C355.824 527.119 360.511 505.067 360.511 480.351C360.511 455.635 355.824 433.689 346.449 414.513C337.074 395.337 322.266 380.315 302.024 369.449C281.996 358.582 255.575 353.149 222.763 353.149H98.7571V923H0Z" fill="white"/>
<path d="M575.684 923V268.455H986.053V353.469H674.441V552.901H964.64V637.595H674.441V837.986H989.888V923H575.684Z" fill="white"/>
<path d="M1686.54 595.727C1686.54 665.614 1673.76 725.699 1648.19 775.983C1622.62 826.054 1587.57 864.619 1543.04 891.679C1498.72 918.526 1448.33 931.949 1391.87 931.949C1335.19 931.949 1284.59 918.526 1240.06 891.679C1195.74 864.619 1160.8 825.947 1135.23 775.663C1109.66 725.379 1096.88 665.401 1096.88 595.727C1096.88 525.841 1109.66 465.862 1135.23 415.791C1160.8 365.507 1195.74 326.942 1240.06 300.095C1284.59 273.035 1335.19 259.506 1391.87 259.506C1448.33 259.506 1498.72 273.035 1543.04 300.095C1587.57 326.942 1622.62 365.507 1648.19 415.791C1673.76 465.862 1686.54 525.841 1686.54 595.727ZM1588.74 595.727C1588.74 542.46 1580.11 497.609 1562.86 461.175C1545.81 424.527 1522.37 396.828 1492.54 378.078C1462.93 359.115 1429.37 349.634 1391.87 349.634C1354.15 349.634 1320.49 359.115 1290.87 378.078C1261.26 396.828 1237.82 424.527 1220.56 461.175C1203.52 497.609 1194.99 542.46 1194.99 595.727C1194.99 648.994 1203.52 693.952 1220.56 730.599C1237.82 767.034 1261.26 794.733 1290.87 813.696C1320.49 832.446 1354.15 841.821 1391.87 841.821C1429.37 841.821 1462.93 832.446 1492.54 813.696C1522.37 794.733 1545.81 767.034 1562.86 730.599C1580.11 693.952 1588.74 648.994 1588.74 595.727Z" fill="white"/>
<path d="M1809.67 923V268.455H2042.98C2093.9 268.455 2136.09 277.723 2169.54 296.26C2202.99 314.797 2228.03 340.152 2244.65 372.325C2261.27 404.285 2269.58 440.294 2269.58 480.351C2269.58 520.621 2261.16 556.842 2244.33 589.016C2227.71 620.976 2202.57 646.331 2168.9 665.081C2135.45 683.618 2093.37 692.886 2042.66 692.886H1882.22V609.151H2033.71C2065.88 609.151 2091.98 603.611 2112.01 592.531C2132.04 581.239 2146.74 565.898 2156.12 546.508C2165.49 527.119 2170.18 505.067 2170.18 480.351C2170.18 455.635 2165.49 433.689 2156.12 414.513C2146.74 395.337 2131.93 380.315 2111.69 369.449C2091.66 358.582 2065.24 353.149 2032.43 353.149H1908.43V923H1809.67Z" fill="white"/>
<path d="M2385.35 923V268.455H2484.11V837.986H2780.7V923H2385.35Z" fill="white"/>
<path d="M2893.36 923V268.455H3303.73V353.469H2992.12V552.901H3282.32V637.595H2992.12V837.986H3307.56V923H2893.36Z" fill="white"/>
<path d="M3792.64 440.401C3789.23 410.145 3775.17 386.707 3750.45 370.088C3725.74 353.256 3694.63 344.84 3657.13 344.84C3630.28 344.84 3607.06 349.101 3587.46 357.624C3567.85 365.933 3552.62 377.439 3541.75 392.141C3531.1 406.629 3525.77 423.142 3525.77 441.679C3525.77 457.233 3529.39 470.656 3536.64 481.949C3544.1 493.241 3553.79 502.723 3565.72 510.393C3577.87 517.851 3590.86 524.136 3604.71 529.25C3618.56 534.151 3631.88 538.199 3644.66 541.395L3708.58 558.014C3729.47 563.128 3750.88 570.053 3772.82 578.788C3794.77 587.524 3815.12 599.03 3833.87 613.305C3852.62 627.581 3867.75 645.266 3879.25 666.359C3890.97 687.453 3896.83 712.702 3896.83 742.105C3896.83 779.179 3887.24 812.098 3868.07 840.862C3849.1 869.626 3821.51 892.318 3785.29 908.938C3749.28 925.557 3705.71 933.866 3654.57 933.866C3605.57 933.866 3563.17 926.089 3527.37 910.536C3491.57 894.982 3463.56 872.929 3443.31 844.378C3423.07 815.614 3411.89 781.523 3409.76 742.105H3508.83C3510.75 765.756 3518.42 785.464 3531.84 801.232C3545.48 816.785 3562.85 828.398 3583.94 836.068C3605.25 843.526 3628.58 847.254 3653.93 847.254C3681.84 847.254 3706.67 842.886 3728.4 834.151C3750.35 825.202 3767.6 812.844 3780.18 797.077C3792.75 781.097 3799.03 762.453 3799.03 741.146C3799.03 721.757 3793.49 705.884 3782.41 693.526C3771.55 681.168 3756.74 670.94 3737.99 662.844C3719.45 654.747 3698.46 647.609 3675.03 641.43L3597.68 620.337C3545.27 606.061 3503.72 585.074 3473.04 557.375C3442.57 529.676 3427.33 493.028 3427.33 447.432C3427.33 409.719 3437.56 376.8 3458.02 348.675C3478.47 320.55 3506.17 298.71 3541.11 283.156C3576.06 267.389 3615.47 259.506 3659.37 259.506C3703.68 259.506 3742.78 267.283 3776.66 282.837C3810.75 298.391 3837.6 319.804 3857.2 347.077C3876.8 374.136 3887.03 405.244 3887.88 440.401H3792.64Z" fill="white"/>
<path d="M1118.25 1636H937.786V1126.91H1119.75C1170.95 1126.91 1215.04 1137.1 1251.99 1157.48C1288.95 1177.7 1317.37 1206.79 1337.25 1244.74C1357.31 1282.69 1367.33 1328.09 1367.33 1380.96C1367.33 1433.99 1357.31 1479.56 1337.25 1517.68C1317.37 1555.79 1288.78 1585.04 1251.49 1605.42C1214.37 1625.81 1169.96 1636 1118.25 1636ZM1045.42 1543.78H1113.78C1145.6 1543.78 1172.36 1538.14 1194.07 1526.87C1215.95 1515.44 1232.35 1497.79 1243.29 1473.93C1254.39 1449.9 1259.94 1418.91 1259.94 1380.96C1259.94 1343.34 1254.39 1312.6 1243.29 1288.73C1232.35 1264.87 1216.03 1247.3 1194.32 1236.04C1172.61 1224.77 1145.85 1219.13 1114.03 1219.13H1045.42V1543.78Z" fill="#A3B0D9"/>
<path d="M1914.89 1381.45C1914.89 1436.97 1904.37 1484.2 1883.32 1523.14C1862.44 1562.09 1833.94 1591.84 1797.81 1612.38C1761.85 1632.77 1721.41 1642.96 1676.5 1642.96C1631.26 1642.96 1590.66 1632.69 1554.7 1612.14C1518.74 1591.59 1490.32 1561.84 1469.44 1522.9C1448.55 1483.95 1438.11 1436.8 1438.11 1381.45C1438.11 1325.94 1448.55 1278.71 1469.44 1239.76C1490.32 1200.82 1518.74 1171.16 1554.7 1150.77C1590.66 1130.22 1631.26 1119.95 1676.5 1119.95C1721.41 1119.95 1761.85 1130.22 1797.81 1150.77C1833.94 1171.16 1862.44 1200.82 1883.32 1239.76C1904.37 1278.71 1914.89 1325.94 1914.89 1381.45ZM1805.76 1381.45C1805.76 1345.49 1800.38 1315.17 1789.61 1290.47C1779 1265.78 1764 1247.06 1744.61 1234.3C1725.22 1221.54 1702.52 1215.15 1676.5 1215.15C1650.48 1215.15 1627.78 1221.54 1608.39 1234.3C1589 1247.06 1573.92 1265.78 1563.15 1290.47C1552.54 1315.17 1547.24 1345.49 1547.24 1381.45C1547.24 1417.42 1552.54 1447.74 1563.15 1472.43C1573.92 1497.13 1589 1515.85 1608.39 1528.61C1627.78 1541.37 1650.48 1547.75 1676.5 1547.75C1702.52 1547.75 1725.22 1541.37 1744.61 1528.61C1764 1515.85 1779 1497.13 1789.61 1472.43C1800.38 1447.74 1805.76 1417.42 1805.76 1381.45Z" fill="#A3B0D9"/>
<path d="M2443.8 1305.14H2334.93C2332.94 1291.05 2328.88 1278.54 2322.75 1267.61C2316.62 1256.5 2308.74 1247.06 2299.13 1239.27C2289.52 1231.48 2278.42 1225.51 2265.82 1221.37C2253.39 1217.23 2239.89 1215.15 2225.3 1215.15C2198.95 1215.15 2176 1221.7 2156.45 1234.79C2136.89 1247.72 2121.73 1266.61 2110.96 1291.47C2100.19 1316.16 2094.8 1346.16 2094.8 1381.45C2094.8 1417.75 2100.19 1448.24 2110.96 1472.93C2121.89 1497.62 2137.14 1516.27 2156.7 1528.86C2176.25 1541.46 2198.87 1547.75 2224.56 1547.75C2238.98 1547.75 2252.32 1545.85 2264.58 1542.04C2277.01 1538.23 2288.03 1532.67 2297.64 1525.38C2307.25 1517.92 2315.21 1508.89 2321.5 1498.29C2327.97 1487.68 2332.44 1475.58 2334.93 1461.99L2443.8 1462.49C2440.99 1485.86 2433.94 1508.4 2422.68 1530.11C2411.57 1551.65 2396.57 1570.96 2377.68 1588.02C2358.96 1604.93 2336.58 1618.35 2310.57 1628.29C2284.71 1638.07 2255.46 1642.96 2222.82 1642.96C2177.41 1642.96 2136.81 1632.69 2101.01 1612.14C2065.38 1591.59 2037.21 1561.84 2016.5 1522.9C1995.95 1483.95 1985.67 1436.8 1985.67 1381.45C1985.67 1325.94 1996.11 1278.71 2016.99 1239.76C2037.87 1200.82 2066.21 1171.16 2102.01 1150.77C2137.8 1130.22 2178.07 1119.95 2222.82 1119.95C2252.32 1119.95 2279.66 1124.09 2304.85 1132.38C2330.2 1140.66 2352.66 1152.76 2372.21 1168.67C2391.77 1184.41 2407.68 1203.72 2419.94 1226.59C2432.37 1249.46 2440.32 1275.64 2443.8 1305.14Z" fill="#A3B0D9"/>
<path d="M2501.6 1215.65V1126.91H2919.71V1215.65H2763.85V1636H2657.46V1215.65H2501.6Z" fill="#A3B0D9"/>
<path d="M3433.15 1381.45C3433.15 1436.97 3422.63 1484.2 3401.58 1523.14C3380.7 1562.09 3352.2 1591.84 3316.07 1612.38C3280.11 1632.77 3239.67 1642.96 3194.76 1642.96C3149.52 1642.96 3108.92 1632.69 3072.96 1612.14C3037 1591.59 3008.58 1561.84 2987.7 1522.9C2966.82 1483.95 2956.38 1436.8 2956.38 1381.45C2956.38 1325.94 2966.82 1278.71 2987.7 1239.76C3008.58 1200.82 3037 1171.16 3072.96 1150.77C3108.92 1130.22 3149.52 1119.95 3194.76 1119.95C3239.67 1119.95 3280.11 1130.22 3316.07 1150.77C3352.2 1171.16 3380.7 1200.82 3401.58 1239.76C3422.63 1278.71 3433.15 1325.94 3433.15 1381.45ZM3324.03 1381.45C3324.03 1345.49 3318.64 1315.17 3307.87 1290.47C3297.26 1265.78 3282.26 1247.06 3262.87 1234.3C3243.49 1221.54 3220.78 1215.15 3194.76 1215.15C3168.75 1215.15 3146.04 1221.54 3126.65 1234.3C3107.26 1247.06 3092.18 1265.78 3081.41 1290.47C3070.81 1315.17 3065.5 1345.49 3065.5 1381.45C3065.5 1417.42 3070.81 1447.74 3081.41 1472.43C3092.18 1497.13 3107.26 1515.85 3126.65 1528.61C3146.04 1541.37 3168.75 1547.75 3194.76 1547.75C3220.78 1547.75 3243.49 1541.37 3262.87 1528.61C3282.26 1515.85 3297.26 1497.13 3307.87 1472.43C3318.64 1447.74 3324.03 1417.42 3324.03 1381.45Z" fill="#A3B0D9"/>
<path d="M3512.88 1636V1126.91H3713.74C3752.18 1126.91 3785 1133.79 3812.17 1147.54C3839.52 1161.13 3860.31 1180.44 3874.57 1205.46C3888.98 1230.32 3896.19 1259.57 3896.19 1293.21C3896.19 1327.02 3888.9 1356.1 3874.32 1380.46C3859.73 1404.66 3838.61 1423.22 3810.93 1436.14C3783.42 1449.07 3750.11 1455.53 3711 1455.53H3576.52V1369.03H3693.6C3714.15 1369.03 3731.22 1366.21 3744.81 1360.57C3758.4 1354.94 3768.51 1346.49 3775.14 1335.22C3781.93 1323.95 3785.33 1309.95 3785.33 1293.21C3785.33 1276.31 3781.93 1262.05 3775.14 1250.45C3768.51 1238.85 3758.31 1230.07 3744.56 1224.1C3730.97 1217.97 3713.82 1214.91 3693.1 1214.91H3620.52V1636H3512.88ZM3787.81 1404.32L3914.34 1636H3795.52L3671.73 1404.32H3787.81Z" fill="#A3B0D9"/>
<path d="M3378.41 4.2C3378.41 1.8804 3380.29 0 3382.61 0H3441.41C3443.73 0 3445.61 1.8804 3445.61 4.2V247.8C3445.61 250.12 3443.73 252 3441.41 252H3382.61C3380.29 252 3378.41 250.12 3378.41 247.8V4.2Z" fill="#A3B0D9"/>
<path d="M3290.21 159.6C3287.89 159.6 3286.01 157.72 3286.01 155.4V96.6C3286.01 94.2804 3287.89 92.4 3290.21 92.4H3533.81C3536.13 92.4 3538.01 94.2804 3538.01 96.6V155.4C3538.01 157.72 3536.13 159.6 3533.81 159.6H3290.21Z" fill="#A3B0D9"/>
</svg>
